<?xml version="1.0" ?><!DOCTYPE svg  PUBLIC '-//W3C//DTD SVG 1.0//EN'  'http://www.w3.org/TR/2001/REC-SVG-20010904/DTD/svg10.dtd'><svg enable-background="new 0 0 32 32" height="32px" id="Layer_1" version="1.0" viewBox="0 0 32 32" width="32px" xml:space="preserve" xmlns="http://www.w3.org/2000/svg" xmlns:xlink="http://www.w3.org/1999/xlink"><path d="M30.718,19.18c-0.544,3.932-2.587,7.414-5.752,9.81C22.357,30.961,19.247,32,16.032,32c-0.686,0-1.378-0.047-2.07-0.145  c-3.933-0.543-7.417-2.588-9.812-5.752c-0.521-0.688-0.987-1.427-1.382-2.192c-1.355-2.63-2.028-5.922-1.49-8.865  c0.112-0.612,0.708-1.133,1.329-1.03c0.597,0.095,1.001,0.743,0.945,1.344c-0.002,0.02-0.004,0.04-0.007,0.06  c-0.459,3.324,0.404,6.627,2.428,9.305c2.027,2.678,4.975,4.406,8.302,4.867c3.325,0.465,6.632-0.4,9.31-2.426  c2.679-2.027,4.407-4.975,4.868-8.3c0.342-2.461-0.044-4.942-1.118-7.172c-1.362-2.827-4.922-5.306-8.242-6.562l1.509,4.362  c0.252,0.73-0.308,1.517-1.082,1.517c-0.473,0-0.916-0.297-1.08-0.771c-0.113-0.342-1.995-5.852-2.171-6.288  c-0.237-0.587-0.026-1.417,0.636-1.646l6.479-2.243c0.597-0.208,1.248,0.11,1.454,0.707c0.207,0.596-0.109,1.248-0.706,1.453  L20.818,3.37c3.479,1.514,7.043,4.157,8.574,7.331C30.665,13.339,31.122,16.271,30.718,19.18z"/></svg>